<svg width="512" height="512" viewBox="0 0 512 512" fill="none" xmlns="http://www.w3.org/2000/svg">
<g clip-path="url(#clip0_56_262)">
<rect width="512" height="512" rx="96" fill="url(#paint0_linear_56_262)"/>
<path d="M281.711 338.322C281.668 338.372 281.646 338.401 281.618 338.436C283.249 336.44 284.852 334.415 286.433 332.368C299.993 371.417 321.818 396.769 348.122 394.329C374.426 391.889 382.426 377.113 382.426 377.113L377.274 369.384C359.242 377.52 348.53 373.993 337.954 358.129C327.378 342.265 317.754 301.048 317.074 295.08C316.623 291.088 317.024 288.49 318.834 284.855L318.462 285.263C307.435 303.76 295.156 321.485 281.711 338.315V338.322Z" fill="url(#paint1_linear_56_262)"/>
<path d="M413.152 114C409.281 114 406.147 117.134 406.147 121.005C406.147 122.959 406.949 124.726 408.237 125.993L407.864 125.835C407.864 125.835 404.251 129.542 400.63 132.526C397.017 135.51 395.027 135.596 388.337 134.966C381.646 134.336 378.755 140.39 378.934 142.923C379.113 145.456 381.281 149.342 375.406 153.32C369.532 157.299 366.19 153.141 360.945 154.408C355.7 155.674 355.299 159.381 352.587 163.853C349.875 168.326 344.315 169.685 339.163 167.918C334.011 166.157 327.371 165.478 324.115 171.309C320.859 177.141 323.979 182.966 325.603 184.597C327.228 186.229 329.267 188.397 326.555 193.678C323.843 198.959 317.203 210.086 290.355 246.959C280.229 190.737 250.355 157.106 207.915 156.426C169.41 155.81 143.657 175.238 124.129 198.422C100.838 226.093 86.4476 274.887 94.0398 320.447C101.632 366.007 132.816 398 178.097 398C220.795 398 254.698 371.481 281.61 338.444C281.639 338.408 281.661 338.379 281.703 338.329C295.142 321.506 307.428 303.775 318.455 285.277L318.827 284.869C319.721 283.073 320.959 281.02 322.619 278.415C327.635 270.551 351.449 228.34 373.145 188.39C393.367 151.152 407.378 129.549 409.188 126.787C410.312 127.56 411.678 128.011 413.145 128.011C417.016 128.011 420.151 124.877 420.151 121.005C420.151 117.134 417.016 114 413.145 114L413.152 114ZM203.593 336.44C172.315 358.315 160.888 356.776 151.392 352.712C141.904 348.648 135.077 333.37 133.811 311.131C132.544 288.898 136.881 246.05 152.795 215.682C168.702 185.313 187.507 172.877 210.147 175.438C233.353 178.057 245.804 204.025 250.705 222.916C255.149 240.039 264.151 276.426 264.151 276.426C264.151 276.426 234.863 314.572 203.593 336.44Z" fill="url(#paint2_linear_56_262)"/>
<path d="M188.115 379.796C191.846 379.796 194.87 376.772 194.87 373.041C194.87 369.31 191.846 366.286 188.115 366.286C184.384 366.286 181.36 369.31 181.36 373.041C181.36 376.772 184.384 379.796 188.115 379.796Z" fill="#1AFFFF"/>
<path d="M219.457 362.83C223.606 362.83 226.97 359.466 226.97 355.317C226.97 351.167 223.606 347.803 219.457 347.803C215.307 347.803 211.943 351.167 211.943 355.317C211.943 359.466 215.307 362.83 219.457 362.83Z" fill="#1AFFFF"/>
<path d="M246.212 340.783C250.361 340.783 253.725 337.419 253.725 333.27C253.725 329.12 250.361 325.756 246.212 325.756C242.062 325.756 238.698 329.12 238.698 333.27C238.698 337.419 242.062 340.783 246.212 340.783Z" fill="#1AFFFF"/>
<path d="M276.594 311.228C278.065 307.675 276.378 303.603 272.826 302.131C269.273 300.66 265.2 302.347 263.729 305.899C262.257 309.452 263.944 313.524 267.497 314.996C271.049 316.467 275.122 314.78 276.594 311.228Z" fill="#1AFFFF"/>
<path d="M291.771 289.506C295.411 289.506 298.362 286.556 298.362 282.916C298.362 279.276 295.411 276.326 291.771 276.326C288.132 276.326 285.181 279.276 285.181 282.916C285.181 286.556 288.132 289.506 291.771 289.506Z" fill="#1AFFFF"/>
<path d="M309.331 263.724C312.683 263.724 315.399 261.007 315.399 257.656C315.399 254.305 312.683 251.588 309.331 251.588C305.98 251.588 303.263 254.305 303.263 257.656C303.263 261.007 305.98 263.724 309.331 263.724Z" fill="#1AFFFF"/>
<path d="M325.625 237.592C328.608 237.592 331.027 235.173 331.027 232.19C331.027 229.206 328.608 226.787 325.625 226.787C322.641 226.787 320.222 229.206 320.222 232.19C320.222 235.173 322.641 237.592 325.625 237.592Z" fill="#1AFFFF"/>
<path d="M341.904 211.939C344.575 211.939 346.741 209.773 346.741 207.102C346.741 204.43 344.575 202.265 341.904 202.265C339.232 202.265 337.067 204.43 337.067 207.102C337.067 209.773 339.232 211.939 341.904 211.939Z" fill="#1AFFFF"/>
<path d="M356.344 187.774C358.774 187.774 360.745 185.804 360.745 183.373C360.745 180.943 358.774 178.973 356.344 178.973C353.913 178.973 351.943 180.943 351.943 183.373C351.943 185.804 353.913 187.774 356.344 187.774Z" fill="#1AFFFF"/>
<path d="M372.566 171.695C374.364 171.695 375.822 170.238 375.822 168.439C375.822 166.641 374.364 165.184 372.566 165.184C370.768 165.184 369.31 166.641 369.31 168.439C369.31 170.238 370.768 171.695 372.566 171.695Z" fill="#1AFFFF"/>
</g>
<defs>
<linearGradient id="paint0_linear_56_262" x1="512" y1="-1.52588e-05" x2="-2.12087e-05" y2="533.59" gradientUnits="userSpaceOnUse">
<stop stop-color="#DAF2FE"/>
<stop offset="0.31" stop-color="white"/>
<stop offset="0.608454" stop-color="white"/>
<stop offset="1" stop-color="#F6F2FE"/>
</linearGradient>
<linearGradient id="paint1_linear_56_262" x1="293.732" y1="309.971" x2="372.093" y2="388.333" gradientUnits="userSpaceOnUse">
<stop offset="0.08" stop-color="#371FE5"/>
<stop offset="0.3" stop-color="#491FEB"/>
<stop offset="0.65" stop-color="#601FF3"/>
<stop offset="0.87" stop-color="#6920F6"/>
</linearGradient>
<linearGradient id="paint2_linear_56_262" x1="108.695" y1="363.102" x2="386.927" y2="84.8694" gradientUnits="userSpaceOnUse">
<stop stop-color="#2320AF"/>
<stop offset="0.14" stop-color="#2123B2"/>
<stop offset="0.29" stop-color="#1C2FBC"/>
<stop offset="0.43" stop-color="#1343CC"/>
<stop offset="0.53" stop-color="#0C56DB"/>
<stop offset="0.6" stop-color="#0A62DC"/>
<stop offset="0.74" stop-color="#0781DF"/>
<stop offset="0.92" stop-color="#02B5E5"/>
<stop offset="1" stop-color="#00D0E8"/>
</linearGradient>
<clipPath id="clip0_56_262">
<rect width="512" height="512" fill="white"/>
</clipPath>
</defs>
</svg>
