<svg width="512" height="512" viewBox="0 0 512 512" fill="none" xmlns="http://www.w3.org/2000/svg">
<g clip-path="url(#clip0_57_279)">
<rect width="512" height="512" rx="100" fill="url(#paint0_linear_57_279)"/>
<path d="M460.678 89.0093C455.242 89.0093 450.836 93.4153 450.836 98.8508C450.836 101.105 451.597 103.164 452.867 104.824C450.502 107.227 446.764 111.021 442.293 115.547C440.382 114.045 437.98 113.145 435.364 113.145C429.149 113.145 424.113 118.181 424.113 124.396C424.113 127.058 425.04 129.507 426.599 131.437C412.509 145.675 398.252 160.006 396.703 161.304C393.54 163.939 388.967 161.657 387.919 157.26C386.861 152.863 388.976 148.652 395.655 148.476C395.924 148.476 396.183 148.448 396.443 148.42C396.898 148.485 397.352 148.532 397.825 148.532C403.038 148.532 407.259 144.311 407.259 139.098C407.259 133.885 403.038 129.665 397.825 129.665C392.612 129.665 388.447 133.839 388.401 139.015L388.28 138.978C388.28 138.978 311.654 213.323 307.609 217.191C303.565 221.059 297.592 229.667 286.869 226.856C276.146 224.046 280.951 213.443 270.404 187.898C259.858 162.353 244.627 139.154 200.577 135.88C156.526 132.596 115.045 156.268 81.2998 202.192C47.5547 248.125 26.9347 341.152 55.5225 388.254C84.1103 435.356 141.054 425.515 175.263 404.653C209.472 383.792 237.364 351.698 245.916 343.962C254.469 336.226 258.921 342.209 261.268 350.056C263.614 357.904 265.015 371.845 272.278 385.675C279.541 399.505 299.465 430.431 341.169 416.61C382.882 402.78 391.314 365.055 391.314 365.055L379.366 362.95C370.814 373.199 359.275 385.212 343.98 385.564C328.684 385.917 319.195 375.018 313.75 360.779C308.305 346.541 304.085 334.241 301.45 322.99C298.816 311.738 296.358 303.131 305.494 290.478C314.631 277.826 325.883 256.381 367.883 206.468C389.913 180.292 413.334 153.837 430.634 134.581C432.071 135.249 433.676 135.638 435.373 135.638C441.588 135.638 446.625 130.602 446.625 124.387C446.625 122.291 446.041 120.333 445.039 118.645C449.973 113.219 453.609 109.258 455.502 107.199C457.004 108.136 458.776 108.683 460.687 108.683C466.123 108.683 470.529 104.277 470.529 98.8416C470.529 93.406 466.123 89 460.687 89L460.678 89.0093ZM239.581 287.603C232.318 297.676 195.679 342.144 168.51 367.977C141.342 393.81 125.499 393.532 114.006 388.977C101.53 384.034 96.5213 364.814 96.1688 347.589C95.8163 330.364 100.389 272.892 121.826 229.129C143.271 185.366 175.078 152.502 206.893 162.872C217.616 166.369 227.142 177.351 232.021 189.53C240.11 209.687 243.059 243.719 244.367 252.216C246.436 265.619 246.844 277.52 239.581 287.603ZM332.311 227.004C328.406 227.004 325.233 223.832 325.233 219.927C325.233 216.022 328.396 212.85 332.311 212.85C336.225 212.85 339.388 216.013 339.388 219.927C339.388 223.841 336.216 227.004 332.311 227.004ZM355.472 203.166C351.335 203.166 347.977 199.808 347.977 195.671C347.977 191.534 351.335 188.176 355.472 188.176C359.609 188.176 362.967 191.534 362.967 195.671C362.967 199.808 359.609 203.166 355.472 203.166ZM376.129 181.924C371.64 181.924 367.994 178.279 367.994 173.79C367.994 169.3 371.64 165.655 376.129 165.655C380.619 165.655 384.264 169.3 384.264 173.79C384.264 178.279 380.619 181.924 376.129 181.924Z" fill="url(#paint1_linear_57_279)"/>
<path d="M333.136 170.441C338.151 170.441 342.217 166.375 342.217 161.36C342.217 156.344 338.151 152.279 333.136 152.279C328.121 152.279 324.055 156.344 324.055 161.36C324.055 166.375 328.121 170.441 333.136 170.441Z" fill="#10F7F1"/>
<path d="M363.783 258.19C368.117 258.19 371.63 254.676 371.63 250.342C371.63 246.008 368.117 242.495 363.783 242.495C359.449 242.495 355.936 246.008 355.936 250.342C355.936 254.676 359.449 258.19 363.783 258.19Z" fill="#10F7F1"/>
<path d="M384.635 227.264C389.486 227.264 393.419 223.331 393.419 218.48C393.419 213.629 389.486 209.696 384.635 209.696C379.784 209.696 375.851 213.629 375.851 218.48C375.851 223.331 379.784 227.264 384.635 227.264Z" fill="#10F7F1"/>
<path d="M406.312 197.971C410.969 197.971 414.744 194.196 414.744 189.54C414.744 184.883 410.969 181.108 406.312 181.108C401.656 181.108 397.881 184.883 397.881 189.54C397.881 194.196 401.656 197.971 406.312 197.971Z" fill="#10F7F1"/>
<path d="M425.996 174.773C430.914 174.773 434.9 170.786 434.9 165.868C434.9 160.95 430.914 156.963 425.996 156.963C421.078 156.963 417.091 160.95 417.091 165.868C417.091 170.786 421.078 174.773 425.996 174.773Z" fill="#10F7F1"/>
<path d="M315.262 245.639C318.704 245.639 321.495 242.848 321.495 239.406C321.495 235.963 318.704 233.172 315.262 233.172C311.819 233.172 309.028 235.963 309.028 239.406C309.028 242.848 311.819 245.639 315.262 245.639Z" fill="#10F7F1"/>
<path d="M301.626 262.215C304.828 262.215 307.424 259.619 307.424 256.417C307.424 253.216 304.828 250.62 301.626 250.62C298.425 250.62 295.829 253.216 295.829 256.417C295.829 259.619 298.425 262.215 301.626 262.215Z" fill="#10F7F1"/>
<path d="M284.587 280.507C288.603 280.507 291.859 277.251 291.859 273.235C291.859 269.218 288.603 265.962 284.587 265.962C280.571 265.962 277.315 269.218 277.315 273.235C277.315 277.251 280.571 280.507 284.587 280.507Z" fill="#10F7F1"/>
<path d="M182.786 381.307C185.54 378.941 188.434 376.353 191.449 373.561L187.21 369.322C183.917 372.532 181.06 375.277 178.843 377.364L182.786 381.307Z" fill="#10F7F1"/>
<path d="M170.69 384.655C167.907 387.039 165.254 389.209 162.704 391.185L166.061 394.543C168.575 392.734 171.339 390.665 174.335 388.291L170.699 384.655H170.69Z" fill="#10F7F1"/>
<path d="M175.263 387.54C177.266 385.935 179.372 384.201 181.57 382.336L177.675 378.44C177.127 378.951 176.626 379.405 176.181 379.804C174.604 381.223 173.083 382.568 171.58 383.857L175.254 387.531L175.263 387.54Z" fill="#10F7F1"/>
<path d="M223.107 342.191C225.973 339.269 228.775 336.393 231.492 333.601L227.346 329.455C224.591 332.219 221.744 335.067 218.868 337.942L223.107 342.181V342.191Z" fill="#10F7F1"/>
<path d="M212.885 352.533C215.816 349.583 218.738 346.634 221.614 343.702L217.366 339.454C214.434 342.376 211.494 345.326 208.581 348.22L212.895 352.533H212.885Z" fill="#10F7F1"/>
<path d="M152.806 398.318C149.495 400.507 146.341 402.399 143.271 404.069L150.07 404.653C150.07 404.653 152.129 403.651 155.858 401.36L152.816 398.318H152.806Z" fill="#10F7F1"/>
<path d="M261.852 289.421C258.939 289.959 256.565 292.25 255.925 295.135C255.693 296.192 255.684 297.222 255.851 298.177C256.073 299.401 255.795 300.672 254.96 301.6C254.775 301.804 254.571 302.027 254.348 302.258C253.142 303.501 242.252 314.512 228.849 327.962L232.977 332.089C244.905 319.79 254.7 309.493 258.476 305.496C259.394 304.531 260.711 304.086 262.028 304.299C262.659 304.401 263.42 304.448 264.273 304.345C267.863 303.919 270.655 300.849 270.84 297.24C271.081 292.417 266.796 288.512 261.852 289.421Z" fill="#10F7F1"/>
<path d="M207.069 349.722C204.148 352.625 201.281 355.473 198.526 358.2L202.868 362.541C205.687 359.759 208.535 356.911 211.401 354.045L207.079 349.722H207.069Z" fill="#10F7F1"/>
<path d="M156.897 400.72C159.132 399.32 161.878 397.511 165.069 395.247L161.748 391.927C158.993 394.042 156.359 395.934 153.827 397.65L156.906 400.729L156.897 400.72Z" fill="#10F7F1"/>
<path d="M197.005 359.703C194.074 362.597 191.291 365.343 188.731 367.838L193.007 372.114C194.39 370.806 195.799 369.47 197.228 368.079C198.582 366.753 199.955 365.408 201.346 364.044L197.015 359.712L197.005 359.703Z" fill="#10F7F1"/>
<path d="M391.314 365.055L379.367 362.95C370.814 373.199 359.275 385.211 343.98 385.564C337.31 385.722 331.736 383.727 327.126 380.249L307.813 418.242C316.941 420.877 327.96 420.988 341.169 416.61C382.882 402.78 391.314 365.055 391.314 365.055Z" fill="#0367D7"/>
</g>
<defs>
<linearGradient id="paint0_linear_57_279" x1="488.5" y1="-41" x2="-4.07788e-05" y2="533.59" gradientUnits="userSpaceOnUse">
<stop stop-color="#113482"/>
<stop offset="1" stop-color="#0F1729"/>
</linearGradient>
<linearGradient id="paint1_linear_57_279" x1="41.7202" y1="354.583" x2="503.114" y2="186.655" gradientUnits="userSpaceOnUse">
<stop offset="0.14" stop-color="#3331B8"/>
<stop offset="0.23" stop-color="#3035B9"/>
<stop offset="0.33" stop-color="#2941BF"/>
<stop offset="0.43" stop-color="#1D56C7"/>
<stop offset="0.53" stop-color="#0D73D4"/>
<stop offset="0.59" stop-color="#0288DD"/>
<stop offset="0.69" stop-color="#01ADE6"/>
<stop offset="0.85" stop-color="#01E7F6"/>
<stop offset="0.93" stop-color="#01FEFC"/>
</linearGradient>
<clipPath id="clip0_57_279">
<rect width="512" height="512" fill="white"/>
</clipPath>
</defs>
</svg>
