<svg width="512" height="512" viewBox="0 0 512 512" fill="none" xmlns="http://www.w3.org/2000/svg">
<path d="M476.368 76.01C470.508 76.01 465.758 80.76 465.758 86.62C465.758 89.05 466.578 91.27 467.948 93.06C465.398 95.65 461.368 99.74 456.548 104.62C454.488 103 451.898 102.03 449.078 102.03C442.378 102.03 436.948 107.46 436.948 114.16C436.948 117.03 437.948 119.67 439.628 121.75C424.438 137.1 409.068 152.55 407.398 153.95C403.988 156.79 399.058 154.33 397.928 149.59C396.788 144.85 399.068 140.31 406.268 140.12C406.558 140.12 406.838 140.09 407.118 140.06C407.608 140.13 408.098 140.18 408.608 140.18C414.228 140.18 418.778 135.63 418.778 130.01C418.778 124.39 414.228 119.84 408.608 119.84C402.988 119.84 398.498 124.34 398.448 129.92L398.318 129.88C398.318 129.88 315.708 210.03 311.348 214.2C306.988 218.37 300.548 227.65 288.988 224.62C277.428 221.59 282.608 210.16 271.238 182.62C259.868 155.08 243.448 130.07 195.958 126.54C148.468 123 103.748 148.52 67.3684 198.03C30.9884 247.55 8.75834 347.84 39.5783 398.62C70.3983 449.4 131.788 438.79 168.668 416.3C205.548 393.81 235.618 359.21 244.838 350.87C254.058 342.53 258.858 348.98 261.388 357.44C263.918 365.9 265.428 380.93 273.258 395.84C281.088 410.75 302.568 444.09 347.528 429.19C392.498 414.28 401.588 373.61 401.588 373.61L388.708 371.34C379.488 382.39 367.048 395.34 350.558 395.72C334.068 396.1 323.838 384.35 317.968 369C312.098 353.65 307.548 340.39 304.708 328.26C301.868 316.13 299.218 306.85 309.068 293.21C318.918 279.57 331.048 256.45 376.328 202.64C400.078 174.42 425.328 145.9 443.978 125.14C445.528 125.86 447.258 126.28 449.088 126.28C455.788 126.28 461.218 120.85 461.218 114.15C461.218 111.89 460.588 109.78 459.508 107.96C464.828 102.11 468.748 97.84 470.788 95.62C472.408 96.63 474.318 97.22 476.378 97.22C482.238 97.22 486.988 92.47 486.988 86.61C486.988 80.75 482.238 76 476.378 76L476.368 76.01ZM238.008 290.11C230.178 300.97 190.678 348.91 161.388 376.76C132.098 404.61 115.018 404.31 102.628 399.4C89.1783 394.07 83.7783 373.35 83.3983 354.78C83.0183 336.21 87.9484 274.25 111.058 227.07C134.178 179.89 168.468 144.46 202.768 155.64C214.328 159.41 224.598 171.25 229.858 184.38C238.578 206.11 241.758 242.8 243.168 251.96C245.398 266.41 245.838 279.24 238.008 290.11ZM337.978 224.78C333.768 224.78 330.348 221.36 330.348 217.15C330.348 212.94 333.758 209.52 337.978 209.52C342.198 209.52 345.608 212.93 345.608 217.15C345.608 221.37 342.188 224.78 337.978 224.78ZM362.948 199.08C358.488 199.08 354.868 195.46 354.868 191C354.868 186.54 358.488 182.92 362.948 182.92C367.408 182.92 371.028 186.54 371.028 191C371.028 195.46 367.408 199.08 362.948 199.08ZM385.218 176.18C380.378 176.18 376.448 172.25 376.448 167.41C376.448 162.57 380.378 158.64 385.218 158.64C390.058 158.64 393.988 162.57 393.988 167.41C393.988 172.25 390.058 176.18 385.218 176.18Z" fill="url(#paint0_linear_53_81)"/>
<path d="M338.868 163.8C344.275 163.8 348.658 159.417 348.658 154.01C348.658 148.603 344.275 144.22 338.868 144.22C333.461 144.22 329.078 148.603 329.078 154.01C329.078 159.417 333.461 163.8 338.868 163.8Z" fill="#10F7F1"/>
<path d="M371.908 258.4C376.581 258.4 380.368 254.612 380.368 249.94C380.368 245.268 376.581 241.48 371.908 241.48C367.236 241.48 363.448 245.268 363.448 249.94C363.448 254.612 367.236 258.4 371.908 258.4Z" fill="#10F7F1"/>
<path d="M394.388 225.06C399.618 225.06 403.858 220.82 403.858 215.59C403.858 210.359 399.618 206.12 394.388 206.12C389.158 206.12 384.918 210.359 384.918 215.59C384.918 220.82 389.158 225.06 394.388 225.06Z" fill="#10F7F1"/>
<path d="M417.758 193.48C422.779 193.48 426.848 189.41 426.848 184.39C426.848 179.37 422.779 175.3 417.758 175.3C412.738 175.3 408.668 179.37 408.668 184.39C408.668 189.41 412.738 193.48 417.758 193.48Z" fill="#10F7F1"/>
<path d="M438.978 168.47C444.28 168.47 448.578 164.172 448.578 158.87C448.578 153.568 444.28 149.27 438.978 149.27C433.676 149.27 429.378 153.568 429.378 158.87C429.378 164.172 433.676 168.47 438.978 168.47Z" fill="#10F7F1"/>
<path d="M319.598 244.87C323.31 244.87 326.318 241.861 326.318 238.15C326.318 234.438 323.31 231.43 319.598 231.43C315.887 231.43 312.878 234.438 312.878 238.15C312.878 241.861 315.887 244.87 319.598 244.87Z" fill="#10F7F1"/>
<path d="M304.898 262.74C308.35 262.74 311.148 259.942 311.148 256.49C311.148 253.038 308.35 250.24 304.898 250.24C301.446 250.24 298.648 253.038 298.648 256.49C298.648 259.942 301.446 262.74 304.898 262.74Z" fill="#10F7F1"/>
<path d="M286.528 282.46C290.858 282.46 294.368 278.95 294.368 274.62C294.368 270.29 290.858 266.78 286.528 266.78C282.198 266.78 278.688 270.29 278.688 274.62C278.688 278.95 282.198 282.46 286.528 282.46Z" fill="#10F7F1"/>
<path d="M176.778 391.13C179.748 388.58 182.868 385.79 186.118 382.78L181.548 378.21C177.998 381.67 174.918 384.63 172.528 386.88L176.778 391.13Z" fill="#10F7F1"/>
<path d="M163.738 394.74C160.738 397.31 157.878 399.65 155.128 401.78L158.748 405.4C161.458 403.45 164.438 401.22 167.668 398.66L163.748 394.74H163.738Z" fill="#10F7F1"/>
<path d="M168.668 397.85C170.828 396.12 173.098 394.25 175.468 392.24L171.268 388.04C170.678 388.59 170.138 389.08 169.658 389.51C167.958 391.04 166.318 392.49 164.698 393.88L168.658 397.84L168.668 397.85Z" fill="#10F7F1"/>
<path d="M220.248 348.96C223.338 345.81 226.358 342.71 229.288 339.7L224.818 335.23C221.848 338.21 218.778 341.28 215.678 344.38L220.248 348.95V348.96Z" fill="#10F7F1"/>
<path d="M209.228 360.11C212.388 356.93 215.538 353.75 218.638 350.59L214.058 346.01C210.898 349.16 207.728 352.34 204.588 355.46L209.238 360.11H209.228Z" fill="#10F7F1"/>
<path d="M144.458 409.47C140.888 411.83 137.488 413.87 134.178 415.67L141.508 416.3C141.508 416.3 143.728 415.22 147.748 412.75L144.468 409.47H144.458Z" fill="#10F7F1"/>
<path d="M262.018 292.07C258.878 292.65 256.318 295.12 255.628 298.23C255.378 299.37 255.368 300.48 255.548 301.51C255.788 302.83 255.488 304.2 254.588 305.2C254.388 305.42 254.168 305.66 253.928 305.91C252.628 307.25 240.888 319.12 226.438 333.62L230.888 338.07C243.748 324.81 254.308 313.71 258.378 309.4C259.368 308.36 260.788 307.88 262.208 308.11C262.888 308.22 263.708 308.27 264.628 308.16C268.498 307.7 271.508 304.39 271.708 300.5C271.968 295.3 267.348 291.09 262.018 292.07Z" fill="#10F7F1"/>
<path d="M202.958 357.08C199.808 360.21 196.718 363.28 193.748 366.22L198.428 370.9C201.468 367.9 204.538 364.83 207.628 361.74L202.968 357.08H202.958Z" fill="#10F7F1"/>
<path d="M148.868 412.06C151.278 410.55 154.238 408.6 157.678 406.16L154.098 402.58C151.128 404.86 148.288 406.9 145.558 408.75L148.878 412.07L148.868 412.06Z" fill="#10F7F1"/>
<path d="M192.108 367.84C188.948 370.96 185.948 373.92 183.188 376.61L187.798 381.22C189.288 379.81 190.808 378.37 192.348 376.87C193.808 375.44 195.288 373.99 196.788 372.52L192.118 367.85L192.108 367.84Z" fill="#10F7F1"/>
<path d="M401.588 373.61L388.708 371.34C379.488 382.39 367.048 395.34 350.558 395.72C343.368 395.89 337.358 393.74 332.388 389.99L311.568 430.95C321.408 433.79 333.288 433.91 347.528 429.19C392.498 414.28 401.588 373.61 401.588 373.61Z" fill="#0367D7"/>
<defs>
<linearGradient id="paint0_linear_53_81" x1="24.6984" y1="362.32" x2="522.118" y2="181.28" gradientUnits="userSpaceOnUse">
<stop offset="0.14" stop-color="#3331B8"/>
<stop offset="0.23" stop-color="#3035B9"/>
<stop offset="0.33" stop-color="#2941BF"/>
<stop offset="0.43" stop-color="#1D56C7"/>
<stop offset="0.53" stop-color="#0D73D4"/>
<stop offset="0.59" stop-color="#0288DD"/>
<stop offset="0.69" stop-color="#01ADE6"/>
<stop offset="0.85" stop-color="#01E7F6"/>
<stop offset="0.93" stop-color="#01FEFC"/>
</linearGradient>
</defs>
</svg>
