<svg width="512" height="512" viewBox="0 0 512 512" fill="none" xmlns="http://www.w3.org/2000/svg">
<path d="M292.121 371.49C292.061 371.56 292.031 371.6 291.991 371.65C294.271 368.86 296.511 366.03 298.721 363.17C317.671 417.74 348.171 453.17 384.931 449.76C421.691 446.35 432.871 425.7 432.871 425.7L425.671 414.9C400.471 426.27 385.501 421.34 370.721 399.17C355.941 377 342.491 319.4 341.541 311.06C340.911 305.48 341.471 301.85 344.001 296.77L343.481 297.34C328.071 323.19 310.911 347.96 292.121 371.48V371.49Z" fill="url(#paint0_linear_53_66)"/>
<path d="M475.811 58C470.401 58 466.021 62.38 466.021 67.79C466.021 70.52 467.141 72.99 468.941 74.76L468.421 74.54C468.421 74.54 463.371 79.72 458.311 83.89C453.261 88.06 450.481 88.18 441.131 87.3C431.781 86.42 427.741 94.88 427.991 98.42C428.241 101.96 431.271 107.39 423.061 112.95C414.851 118.51 410.181 112.7 402.851 114.47C395.521 116.24 394.961 121.42 391.171 127.67C387.381 133.92 379.611 135.82 372.411 133.35C365.211 130.89 355.931 129.94 351.381 138.09C346.831 146.24 351.191 154.38 353.461 156.66C355.731 158.94 358.581 161.97 354.791 169.35C351.001 176.73 341.721 192.28 304.201 243.81C290.051 165.24 248.301 118.24 188.991 117.29C135.181 116.43 99.1906 143.58 71.9006 175.98C39.3506 214.65 19.2406 282.84 29.8506 346.51C40.4606 410.18 84.0406 454.89 147.321 454.89C206.991 454.89 254.371 417.83 291.981 371.66C292.021 371.61 292.051 371.57 292.111 371.5C310.891 347.99 328.061 323.21 343.471 297.36L343.991 296.79C345.241 294.28 346.971 291.41 349.291 287.77C356.301 276.78 389.581 217.79 419.901 161.96C448.161 109.92 467.741 79.73 470.271 75.87C471.841 76.95 473.751 77.58 475.801 77.58C481.211 77.58 485.591 73.2 485.591 67.79C485.591 62.38 481.211 58 475.801 58L475.811 58ZM182.951 368.86C139.241 399.43 123.271 397.28 110.001 391.6C96.7406 385.92 87.2006 364.57 85.4306 333.49C83.6606 302.42 89.7206 242.54 111.961 200.1C134.191 157.66 160.471 140.28 192.111 143.86C224.541 147.52 241.941 183.81 248.791 210.21C255.001 234.14 267.581 284.99 267.581 284.99C267.581 284.99 226.651 338.3 182.951 368.86Z" fill="url(#paint1_linear_53_66)"/>
<path d="M161.321 429.45C166.534 429.45 170.761 425.223 170.761 420.01C170.761 414.796 166.534 410.57 161.321 410.57C156.107 410.57 151.881 414.796 151.881 420.01C151.881 425.223 156.107 429.45 161.321 429.45Z" fill="#1AFFFF"/>
<path d="M205.121 405.74C210.92 405.74 215.621 401.039 215.621 395.24C215.621 389.441 210.92 384.74 205.121 384.74C199.322 384.74 194.621 389.441 194.621 395.24C194.621 401.039 199.322 405.74 205.121 405.74Z" fill="#1AFFFF"/>
<path d="M242.511 374.93C248.31 374.93 253.011 370.229 253.011 364.43C253.011 358.631 248.31 353.93 242.511 353.93C236.712 353.93 232.011 358.631 232.011 364.43C232.011 370.229 236.712 374.93 242.511 374.93Z" fill="#1AFFFF"/>
<path d="M284.97 333.627C287.026 328.662 284.668 322.97 279.704 320.914C274.739 318.857 269.047 321.215 266.991 326.18C264.934 331.144 267.292 336.836 272.257 338.892C277.221 340.949 282.913 338.591 284.97 333.627Z" fill="#1AFFFF"/>
<path d="M306.181 303.27C311.267 303.27 315.391 299.147 315.391 294.06C315.391 288.974 311.267 284.85 306.181 284.85C301.094 284.85 296.971 288.974 296.971 294.06C296.971 299.147 301.094 303.27 306.181 303.27Z" fill="#1AFFFF"/>
<path d="M330.721 267.24C335.404 267.24 339.201 263.443 339.201 258.76C339.201 254.076 335.404 250.28 330.721 250.28C326.037 250.28 322.241 254.076 322.241 258.76C322.241 263.443 326.037 267.24 330.721 267.24Z" fill="#1AFFFF"/>
<path d="M353.491 230.72C357.66 230.72 361.041 227.34 361.041 223.17C361.041 219 357.66 215.62 353.491 215.62C349.321 215.62 345.941 219 345.941 223.17C345.941 227.34 349.321 230.72 353.491 230.72Z" fill="#1AFFFF"/>
<path d="M376.241 194.87C379.974 194.87 383.001 191.844 383.001 188.11C383.001 184.377 379.974 181.35 376.241 181.35C372.507 181.35 369.481 184.377 369.481 188.11C369.481 191.844 372.507 194.87 376.241 194.87Z" fill="#1AFFFF"/>
<path d="M396.421 161.1C399.817 161.1 402.571 158.346 402.571 154.95C402.571 151.553 399.817 148.8 396.421 148.8C393.024 148.8 390.271 151.553 390.271 154.95C390.271 158.346 393.024 161.1 396.421 161.1Z" fill="#1AFFFF"/>
<path d="M419.091 138.63C421.604 138.63 423.641 136.593 423.641 134.08C423.641 131.567 421.604 129.53 419.091 129.53C416.578 129.53 414.541 131.567 414.541 134.08C414.541 136.593 416.578 138.63 419.091 138.63Z" fill="#1AFFFF"/>
<defs>
<linearGradient id="paint0_linear_53_66" x1="308.921" y1="331.87" x2="418.431" y2="441.38" gradientUnits="userSpaceOnUse">
<stop offset="0.08" stop-color="#371FE5"/>
<stop offset="0.3" stop-color="#491FEB"/>
<stop offset="0.65" stop-color="#601FF3"/>
<stop offset="0.87" stop-color="#6920F6"/>
</linearGradient>
<linearGradient id="paint1_linear_53_66" x1="50.3306" y1="406.12" x2="439.161" y2="17.29" gradientUnits="userSpaceOnUse">
<stop stop-color="#2320AF"/>
<stop offset="0.14" stop-color="#2123B2"/>
<stop offset="0.29" stop-color="#1C2FBC"/>
<stop offset="0.43" stop-color="#1343CC"/>
<stop offset="0.53" stop-color="#0C56DB"/>
<stop offset="0.6" stop-color="#0A62DC"/>
<stop offset="0.74" stop-color="#0781DF"/>
<stop offset="0.92" stop-color="#02B5E5"/>
<stop offset="1" stop-color="#00D0E8"/>
</linearGradient>
</defs>
</svg>
