<svg width="2519" height="606" viewBox="0 0 2519 606" fill="none" xmlns="http://www.w3.org/2000/svg">
<path d="M437.356 466.02C437.271 466.12 437.229 466.176 437.172 466.247C440.408 462.287 443.588 458.269 446.726 454.209C473.626 531.675 516.923 581.97 569.106 577.13C621.29 572.289 637.16 542.975 637.16 542.975L626.94 527.644C591.167 543.784 569.916 536.786 548.934 505.314C527.953 473.842 508.86 392.075 507.511 380.236C506.617 372.315 507.412 367.162 511.004 359.95L510.265 360.759C488.39 397.455 464.03 432.618 437.356 466.006V466.02Z" fill="url(#paint0_linear_54_212)"/>
<path d="M698.117 21C690.437 21 684.219 27.2177 684.219 34.8976C684.219 38.773 685.809 42.2793 688.364 44.7919L687.626 44.4796C687.626 44.4796 680.457 51.833 673.274 57.7526C666.105 63.6722 662.159 63.8425 648.886 62.5933C635.613 61.3441 629.878 73.3536 630.233 78.3789C630.588 83.4042 634.889 91.1124 623.234 99.0052C611.58 106.898 604.95 98.6503 594.545 101.163C584.14 103.676 583.345 111.029 577.965 119.901C572.584 128.774 561.554 131.471 551.333 127.964C541.113 124.472 527.939 123.124 521.48 134.693C515.021 146.263 521.21 157.818 524.433 161.054C527.655 164.291 531.701 168.592 526.321 179.069C520.941 189.545 507.767 211.619 454.505 284.77C434.418 173.234 375.151 106.515 290.956 105.166C214.57 103.945 163.479 142.487 124.739 188.481C78.5325 243.375 49.985 340.175 65.0466 430.559C80.1082 520.943 141.973 584.412 231.803 584.412C316.509 584.412 383.768 531.803 437.158 466.261C437.214 466.19 437.257 466.134 437.342 466.034C464.002 432.66 488.376 397.483 510.251 360.788L510.989 359.978C512.764 356.415 515.22 352.341 518.513 347.174C528.464 331.573 575.707 247.833 618.749 168.578C658.866 94.7039 686.661 51.8472 690.252 46.3677C692.481 47.9008 695.192 48.7951 698.102 48.7951C705.782 48.7951 712 42.5774 712 34.8976C712 27.2177 705.782 21 698.102 21L698.117 21ZM282.382 462.287C220.333 505.683 197.663 502.631 178.825 494.568C160.001 486.504 146.459 456.197 143.946 412.076C141.433 367.971 150.036 282.967 181.607 222.72C213.164 162.474 250.47 137.802 295.386 142.884C341.422 148.08 366.123 199.596 375.847 237.072C384.662 271.043 402.52 343.227 402.52 343.227C402.52 343.227 344.417 418.905 282.382 462.287Z" fill="url(#paint1_linear_54_212)"/>
<path d="M251.677 548.298C259.078 548.298 265.078 542.298 265.078 534.897C265.078 527.496 259.078 521.497 251.677 521.497C244.276 521.497 238.276 527.496 238.276 534.897C238.276 542.298 244.276 548.298 251.677 548.298Z" fill="#1AFFFF"/>
<path d="M313.854 514.64C322.086 514.64 328.76 507.967 328.76 499.735C328.76 491.503 322.086 484.83 313.854 484.83C305.622 484.83 298.949 491.503 298.949 499.735C298.949 507.967 305.622 514.64 313.854 514.64Z" fill="#1AFFFF"/>
<path d="M366.932 470.903C375.164 470.903 381.837 464.23 381.837 455.998C381.837 447.766 375.164 441.092 366.932 441.092C358.7 441.092 352.026 447.766 352.026 455.998C352.026 464.23 358.7 470.903 366.932 470.903Z" fill="#1AFFFF"/>
<path d="M427.205 412.27C430.124 405.222 426.777 397.143 419.73 394.223C412.682 391.304 404.602 394.651 401.683 401.698C398.764 408.746 402.111 416.826 409.158 419.745C416.206 422.664 424.286 419.318 427.205 412.27Z" fill="#1AFFFF"/>
<path d="M457.316 369.177C464.536 369.177 470.39 363.323 470.39 356.103C470.39 348.882 464.536 343.028 457.316 343.028C450.095 343.028 444.241 348.882 444.241 356.103C444.241 363.323 450.095 369.177 457.316 369.177Z" fill="#1AFFFF"/>
<path d="M492.152 318.029C498.8 318.029 504.19 312.64 504.19 305.992C504.19 299.343 498.8 293.954 492.152 293.954C485.503 293.954 480.114 299.343 480.114 305.992C480.114 312.64 485.503 318.029 492.152 318.029Z" fill="#1AFFFF"/>
<path d="M524.475 266.188C530.394 266.188 535.193 261.389 535.193 255.47C535.193 249.551 530.394 244.752 524.475 244.752C518.556 244.752 513.757 249.551 513.757 255.47C513.757 261.389 518.556 266.188 524.475 266.188Z" fill="#1AFFFF"/>
<path d="M556.77 215.296C562.07 215.296 566.367 211 566.367 205.7C566.367 200.4 562.07 196.104 556.77 196.104C551.471 196.104 547.174 200.4 547.174 205.7C547.174 211 551.471 215.296 556.77 215.296Z" fill="#1AFFFF"/>
<path d="M585.417 167.357C590.239 167.357 594.148 163.448 594.148 158.627C594.148 153.805 590.239 149.896 585.417 149.896C580.596 149.896 576.687 153.805 576.687 158.627C576.687 163.448 580.596 167.357 585.417 167.357Z" fill="#1AFFFF"/>
<path d="M617.599 135.459C621.166 135.459 624.058 132.567 624.058 129C624.058 125.433 621.166 122.541 617.599 122.541C614.032 122.541 611.14 125.433 611.14 129C611.14 132.567 614.032 135.459 617.599 135.459Z" fill="#1AFFFF"/>
<path d="M2325.35 540.34L2364.49 452.56L2336.37 375.8L2297.99 283.46L2348.53 273.96L2372.85 354.9L2385.39 393.28H2390.33L2399.45 365.54L2426.81 273.58L2473.55 279.28L2406.29 455.98L2374.37 550.6L2325.35 540.34Z" fill="url(#paint2_linear_54_212)"/>
<path d="M2179.9 467C2164.96 467 2152.67 462.313 2143.04 452.94C2133.67 443.313 2128.98 430.52 2128.98 414.56C2128.98 398.346 2136.33 384.413 2151.02 372.76C2165.72 360.853 2183.58 354.9 2204.6 354.9H2230.44V348.44C2230.44 336.026 2227.91 327.54 2222.84 322.98C2217.78 318.42 2208.28 316.14 2194.34 316.14C2188.52 316.14 2181.55 317.406 2173.44 319.94C2165.59 322.22 2156.72 325.893 2146.84 330.96L2135.82 300.94C2146.72 293.34 2159.89 286.5 2175.34 280.42C2191.05 274.34 2203.97 271.3 2214.1 271.3C2253.88 271.3 2273.76 290.553 2273.76 329.06V403.54C2273.76 417.726 2278.2 433.56 2287.06 451.04L2246.78 468.14C2240.45 455.98 2235.76 445.086 2232.72 435.46C2218.79 456.486 2201.18 467 2179.9 467ZM2195.86 428.24C2206 428.24 2217.52 423.046 2230.44 412.66V387.2C2217.02 384.16 2206.12 382.64 2197.76 382.64C2181.8 382.64 2173.82 389.733 2173.82 403.92C2173.82 411.266 2175.85 417.22 2179.9 421.78C2183.96 426.086 2189.28 428.24 2195.86 428.24Z" fill="url(#paint3_linear_54_212)"/>
<path d="M2012.02 419.5H2016.2L2034.06 354.14L2070.54 202.52L2113.48 209.36L2072.06 360.22L2046.6 463.96L1977.06 468.9L1955.4 367.44L1942.48 317.28L1931.08 360.22L1905.62 463.96L1837.22 468.9L1814.42 367.44L1774.9 212.02L1824.3 202.52L1855.08 349.2L1872.18 419.5H1876.36L1896.5 349.2L1924.24 246.6L1915.5 212.02L1965.66 202.52L1995.68 349.2L2012.02 419.5Z" fill="url(#paint4_linear_54_212)"/>
<path d="M1650.35 467C1635.41 467 1623.12 462.313 1613.49 452.94C1604.12 443.313 1599.43 430.52 1599.43 414.56C1599.43 398.346 1606.78 384.413 1621.47 372.76C1636.17 360.853 1654.03 354.9 1675.05 354.9H1700.89V348.44C1700.89 336.026 1698.36 327.54 1693.29 322.98C1688.23 318.42 1678.73 316.14 1664.79 316.14C1658.97 316.14 1652 317.406 1643.89 319.94C1636.04 322.22 1627.17 325.893 1617.29 330.96L1606.27 300.94C1617.17 293.34 1630.34 286.5 1645.79 280.42C1661.5 274.34 1674.42 271.3 1684.55 271.3C1724.33 271.3 1744.21 290.553 1744.21 329.06V403.54C1744.21 417.726 1748.65 433.56 1757.51 451.04L1717.23 468.14C1710.9 455.98 1706.21 445.086 1703.17 435.46C1689.24 456.486 1671.63 467 1650.35 467ZM1666.31 428.24C1676.45 428.24 1687.97 423.046 1700.89 412.66V387.2C1687.47 384.16 1676.57 382.64 1668.21 382.64C1652.25 382.64 1644.27 389.733 1644.27 403.92C1644.27 411.266 1646.3 417.22 1650.35 421.78C1654.41 426.086 1659.73 428.24 1666.31 428.24Z" fill="url(#paint5_linear_54_212)"/>
<path d="M1523.66 370.86C1523.66 353.38 1522.14 341.727 1519.1 335.9C1516.06 330.073 1508.97 327.16 1497.82 327.16C1486.68 327.16 1474.01 331.593 1459.82 340.46V368.2L1464 457.5L1412.7 467L1417.26 374.66L1412.7 182.38L1464.76 172.88L1459.82 271.3V315.76C1463.62 310.693 1467.93 305.753 1472.74 300.94C1477.56 296.127 1485.03 290.68 1495.16 284.6C1505.3 278.52 1516.06 275.48 1527.46 275.48C1539.12 275.48 1548.87 280.04 1556.72 289.16C1564.58 298.027 1568.5 310.187 1568.5 325.64L1566.22 368.2L1570.4 459.4L1519.1 468.9L1523.66 370.86Z" fill="url(#paint6_linear_54_212)"/>
<path d="M1323.79 275.1C1340.01 275.1 1353.56 282.193 1364.45 296.38C1375.6 310.567 1381.17 329.693 1381.17 353.76C1381.17 387.453 1372.43 414.813 1354.95 435.84C1337.73 456.613 1316.19 467 1290.35 467C1285.03 467 1279.08 466.62 1272.49 465.86L1274.39 538.44L1222.33 547.94L1227.27 374.66H1227.65C1226.64 340.713 1223.85 310.313 1219.29 283.46L1265.27 273.58C1266.79 287.007 1268.06 300.307 1269.07 313.48C1269.58 312.213 1272.11 308.793 1276.67 303.22C1281.49 297.393 1288.45 291.313 1297.57 284.98C1306.69 278.393 1315.43 275.1 1323.79 275.1ZM1308.97 324.5C1295.55 324.5 1282.5 328.173 1269.83 335.52V368.2L1271.35 422.54C1285.03 424.82 1295.42 425.96 1302.51 425.96C1326.83 425.96 1338.99 409.113 1338.99 375.42C1338.99 341.473 1328.99 324.5 1308.97 324.5Z" fill="url(#paint7_linear_54_212)"/>
<path d="M1178.28 172.88L1173.34 368.2L1177.52 457.5L1126.22 467L1130.78 374.66L1126.22 182.38L1178.28 172.88Z" fill="url(#paint8_linear_54_212)"/>
<path d="M1043.92 468.9L1025.3 394.8H934.48L914.34 467L865.7 463.2L899.14 370.86L950.06 207.46L1018.08 202.52L1067.1 365.16L1098.64 460.54L1043.92 468.9ZM983.88 251.92H978.94L946.26 354.52H1013.9L983.88 251.92Z" fill="url(#paint9_linear_54_212)"/>
<defs>
<linearGradient id="paint0_linear_54_212" x1="461.205" y1="409.777" x2="616.662" y2="565.234" gradientUnits="userSpaceOnUse">
<stop offset="0.08" stop-color="#371FE5"/>
<stop offset="0.3" stop-color="#491FEB"/>
<stop offset="0.65" stop-color="#601FF3"/>
<stop offset="0.87" stop-color="#6920F6"/>
</linearGradient>
<linearGradient id="paint1_linear_54_212" x1="94.1193" y1="515.18" x2="646.09" y2="-36.7905" gradientUnits="userSpaceOnUse">
<stop stop-color="#2320AF"/>
<stop offset="0.14" stop-color="#2123B2"/>
<stop offset="0.29" stop-color="#1C2FBC"/>
<stop offset="0.43" stop-color="#1343CC"/>
<stop offset="0.53" stop-color="#0C56DB"/>
<stop offset="0.6" stop-color="#0A62DC"/>
<stop offset="0.74" stop-color="#0781DF"/>
<stop offset="0.92" stop-color="#02B5E5"/>
<stop offset="1" stop-color="#00D0E8"/>
</linearGradient>
<linearGradient id="paint2_linear_54_212" x1="2131.41" y1="-34.7576" x2="1896.49" y2="787.165" gradientUnits="userSpaceOnUse">
<stop offset="0.112361" stop-color="#03AEE4"/>
<stop offset="0.608281" stop-color="#0E4FD6"/>
<stop offset="0.912522" stop-color="#2322B1"/>
</linearGradient>
<linearGradient id="paint3_linear_54_212" x1="2131.41" y1="-34.7579" x2="1896.49" y2="787.165" gradientUnits="userSpaceOnUse">
<stop offset="0.112361" stop-color="#03AEE4"/>
<stop offset="0.608281" stop-color="#0E4FD6"/>
<stop offset="0.912522" stop-color="#2322B1"/>
</linearGradient>
<linearGradient id="paint4_linear_54_212" x1="2131.41" y1="-34.7576" x2="1896.49" y2="787.165" gradientUnits="userSpaceOnUse">
<stop offset="0.112361" stop-color="#03AEE4"/>
<stop offset="0.608281" stop-color="#0E4FD6"/>
<stop offset="0.912522" stop-color="#2322B1"/>
</linearGradient>
<linearGradient id="paint5_linear_54_212" x1="2131.41" y1="-34.7579" x2="1896.49" y2="787.165" gradientUnits="userSpaceOnUse">
<stop offset="0.112361" stop-color="#03AEE4"/>
<stop offset="0.608281" stop-color="#0E4FD6"/>
<stop offset="0.912522" stop-color="#2322B1"/>
</linearGradient>
<linearGradient id="paint6_linear_54_212" x1="2131.41" y1="-34.7578" x2="1896.49" y2="787.165" gradientUnits="userSpaceOnUse">
<stop offset="0.112361" stop-color="#03AEE4"/>
<stop offset="0.608281" stop-color="#0E4FD6"/>
<stop offset="0.912522" stop-color="#2322B1"/>
</linearGradient>
<linearGradient id="paint7_linear_54_212" x1="2131.41" y1="-34.7576" x2="1896.49" y2="787.165" gradientUnits="userSpaceOnUse">
<stop offset="0.112361" stop-color="#03AEE4"/>
<stop offset="0.608281" stop-color="#0E4FD6"/>
<stop offset="0.912522" stop-color="#2322B1"/>
</linearGradient>
<linearGradient id="paint8_linear_54_212" x1="2131.41" y1="-34.7577" x2="1896.49" y2="787.165" gradientUnits="userSpaceOnUse">
<stop offset="0.112361" stop-color="#03AEE4"/>
<stop offset="0.608281" stop-color="#0E4FD6"/>
<stop offset="0.912522" stop-color="#2322B1"/>
</linearGradient>
<linearGradient id="paint9_linear_54_212" x1="2131.41" y1="-34.7576" x2="1896.49" y2="787.165" gradientUnits="userSpaceOnUse">
<stop offset="0.112361" stop-color="#03AEE4"/>
<stop offset="0.608281" stop-color="#0E4FD6"/>
<stop offset="0.912522" stop-color="#2322B1"/>
</linearGradient>
</defs>
</svg>
